# xmcd CD database file
#
# Track frame offsets:
#	150
#	16836
#	27418
#	43299
#	51402
#	69698
#	81787
#	99930
#	109539
#	120636
#	132112
#	143958
#	156791
#	165793
#	180229
#	193512
#	203644
#	216166
#	227482
#	239747
#	254556
#	267243
#	285771
#	303346
#	324115
#	338300
#
# Disc length: 4677 seconds
#
# Revision: 0
# Processed by: cddbd v1.5.2PL0 Copyright (c) Steve Scherf et al.
# Submitted via: CDex 1.70beta2
#
DISCID=5a12431a
DTITLE=Cash Johnny - Legendary Performer (Rare Tracks) by Cash 
DYEAR=2007
DGENRE=Country
TTITLE0=Southern Music Commercial - Give My Love To Rose
TTITLE1=Delia´s Gone (1962 Version)
TTITLE2=Big River (Outtake)
TTITLE3=You´re My Baby (Outtake)
TTITLE4=One Too Many Mornings
TTITLE5=Just A Closer Walk With Thee
TTITLE6=Sunday Morning Coming Down
TTITLE7=Joy To The World
TTITLE8=These Hands
TTITLE9=I Still Miss Someone
TTITLE10=Highway Man (Solo)
TTITLE11=I´m A Drifter
TTITLE12=Old Chunk Of Coal
TTITLE13=Jaclson (W. June Carter)
TTITLE14=It Ain´t Me (w. June Carter)
TTITLE15=I Guess Things Happen That Way (w. Tommy Cash)
TTITLE16=Ragged Old Flag
TTITLE17=Live Forever (Rehersal)
TTITLE18=I Never Picked Cotton
TTITLE19=I Changed The Look
TTITLE20=Unchained
TTITLE21=Row Boat
TTITLE22=Rusty Cage
TTITLE23=Southern Accent
TTITLE24=Memories Are Made Of This
TTITLE25=The Far Side Banks Of Jordan (w. June Carter)
EXTD=YEAR: 2007
EXTT0=
EXTT1=
EXTT2=
EXTT3=
EXTT4=
EXTT5=
EXTT6=
EXTT7=
EXTT8=
EXTT9=
EXTT10=
EXTT11=
EXTT12=
EXTT13=
EXTT14=
EXTT15=
EXTT16=
EXTT17=
EXTT18=
EXTT19=
EXTT20=
EXTT21=
EXTT22=
EXTT23=
EXTT24=
EXTT25=
PLAYORDER=
